<?xml version="1.0" encoding="utf-8"?>
<!-- Generator: Adobe Illustrator 24.0.1, SVG Export Plug-In . SVG Version: 6.00 Build 0)  -->
<svg version="1.1" id="Layer_1" xmlns="http://www.w3.org/2000/svg" xmlns:xlink="http://www.w3.org/1999/xlink" x="0px" y="0px"
	 viewBox="0 0 560 288" style="enable-background:new 0 0 560 288;" xml:space="preserve">
<g>
	<path d="M90,179.8v-79.1h57v17.3h-35.5v13.6h32.6v17.3h-32.6v13.6h35.4v17.3L90,179.8L90,179.8z"/>
	<path d="M231.5,130.3h-21.8c-0.1-1.8-0.6-3.4-1.2-4.9s-1.6-2.7-2.7-3.8c-1.1-1.1-2.5-1.9-4.1-2.5s-3.5-0.9-5.5-0.9
		c-3.6,0-6.6,0.9-9.1,2.6s-4.4,4.3-5.6,7.5c-1.3,3.3-1.9,7.2-1.9,11.8c0,4.8,0.6,8.9,1.9,12.1s3.2,5.7,5.7,7.3
		c2.5,1.6,5.4,2.4,8.9,2.4c2,0,3.8-0.3,5.3-0.8s2.9-1.2,4.1-2.2c1.2-0.9,2.1-2.1,2.8-3.5s1.2-2.9,1.5-4.6l21.8,0.1
		c-0.3,3.4-1.2,6.8-2.8,10.2c-1.6,3.5-3.9,6.7-6.9,9.6s-6.6,5.3-11,7.1s-9.5,2.7-15.3,2.7c-7.3,0-13.8-1.6-19.5-4.7
		c-5.8-3.1-10.3-7.7-13.6-13.8s-5-13.5-5-22.2c0-8.8,1.7-16.2,5.1-22.3c3.4-6,8-10.6,13.8-13.7s12.2-4.7,19.3-4.7
		c5,0,9.6,0.7,13.8,2.1s7.9,3.3,11.1,6c3.2,2.6,5.7,5.8,7.6,9.6S231.1,125.4,231.5,130.3z"/>
	<path d="M317.9,140.2c0,8.8-1.7,16.2-5.1,22.3c-3.4,6-8,10.6-13.9,13.7s-12.3,4.7-19.5,4.7c-7.2,0-13.7-1.6-19.5-4.7
		s-10.4-7.7-13.8-13.8s-5.1-13.4-5.1-22.2c0-8.8,1.7-16.2,5.1-22.3c3.4-6,8-10.6,13.8-13.7s12.3-4.7,19.5-4.7
		c7.2,0,13.6,1.6,19.5,4.7s10.4,7.7,13.9,13.7C316.2,124,317.9,131.4,317.9,140.2z M295.8,140.2c0-4.7-0.6-8.7-1.9-12
		c-1.3-3.3-3.1-5.7-5.5-7.4c-2.4-1.7-5.4-2.5-9-2.5c-3.5,0-6.5,0.8-9,2.5c-2.4,1.7-4.3,4.2-5.5,7.4c-1.3,3.3-1.9,7.3-1.9,12
		s0.6,8.7,1.9,12s3.1,5.7,5.5,7.4s5.4,2.5,9,2.5c3.5,0,6.5-0.8,9-2.5c2.4-1.7,4.3-4.2,5.5-7.4C295.2,148.9,295.8,144.9,295.8,140.2z
		"/>
	<path d="M333.2,179.8v-79.1h25.5c5.6,0,10.3,1,14.1,3s6.6,4.8,8.5,8.4c1.9,3.6,2.9,7.7,2.9,12.3s-1,8.7-2.9,12.2
		c-1.9,3.5-4.8,6.3-8.5,8.3c-3.8,2-8.4,3-14,3h-21.8v-6.6h21.6c4.1,0,7.5-0.7,10.3-2.1c2.7-1.4,4.8-3.3,6.1-5.8s2-5.5,2-9
		s-0.7-6.5-2-9.1s-3.4-4.6-6.2-6s-6.2-2.1-10.4-2.1h-18.1v72.6H333.2z M368.1,144.1l19.5,35.7h-8.3l-19.3-35.7H368.1z"/>
	<path d="M402,179.8h-7.6l28.8-79.1h7.7l28.8,79.1h-7.6L427.3,110h-0.5L402,179.8z M407.4,149.4h39.3v6.5h-39.3V149.4z"/>
</g>
</svg>
